<svg width="32" height="32" viewBox="0 0 32 32" fill="none" xmlns="http://www.w3.org/2000/svg">
<ellipse rx="2.5" ry="2.5" transform="matrix(1 -1.06727e-07 -1.05574e-07 -1 12.5 5.5)" fill="#FF6600"/>
<path fill-rule="evenodd" clip-rule="evenodd" d="M19.5666 3.04077C18.1955 3.04077 17.084 4.15831 17.084 5.53687C17.084 6.24373 17.3763 6.88197 17.8459 7.33611C18.2556 7.78124 18.506 8.37677 18.506 9.03111C18.506 9.68819 18.2535 10.286 17.8407 10.7317C17.3741 11.1855 17.084 11.8217 17.084 12.5259C17.084 13.9045 18.1955 15.022 19.5666 15.022C20.2584 15.022 20.8841 14.7375 21.3343 14.2786C21.7793 13.8543 22.3805 13.5941 23.0422 13.5941C23.7011 13.5941 24.3001 13.8522 24.7446 14.2734C25.1952 14.7354 25.8229 15.022 26.5173 15.022C27.8884 15.022 28.9999 13.9045 28.9999 12.5259C28.9999 11.1474 27.8884 10.0298 26.5173 10.0298C25.8122 10.0298 25.1757 10.3254 24.7238 10.8C24.2815 11.2097 23.6909 11.4599 23.0422 11.4599C22.3918 11.4599 21.7998 11.2084 21.3572 10.7969L21.3413 10.7805L21.3414 10.7805C20.9012 10.3301 20.6296 9.71247 20.6296 9.03111C20.6296 8.36172 20.8917 7.75387 21.3183 7.30562C21.7698 6.85363 22.0492 6.22806 22.0492 5.53687C22.0492 4.15831 20.9377 3.04077 19.5666 3.04077ZM19.5666 29C18.1955 29 17.084 27.8825 17.084 26.5039C17.084 25.7978 17.3756 25.1602 17.8444 24.7062C18.255 24.2609 18.506 23.6647 18.506 23.0095C18.506 22.3543 18.255 21.7581 17.8443 21.3128C17.3756 20.8587 17.084 20.2211 17.084 19.5151C17.084 18.1365 18.1955 17.019 19.5666 17.019C20.2557 17.019 20.8792 17.3012 21.3289 17.757C21.7745 18.1843 22.3778 18.4466 23.0421 18.4466C23.7034 18.4466 24.3043 18.1866 24.7493 17.7628C25.1995 17.3036 25.8253 17.019 26.5173 17.019C27.8884 17.019 28.9999 18.1365 28.9999 19.5151C28.9999 20.8936 27.8884 22.0112 26.5173 22.0112C25.8108 22.0112 25.1732 21.7144 24.7211 21.2381C24.2791 20.8299 23.6896 20.5807 23.0421 20.5807C22.3932 20.5807 21.8025 20.8311 21.3602 21.2409C21.3478 21.2539 21.3353 21.2668 21.3226 21.2795C20.8935 21.7282 20.6296 22.3379 20.6296 23.0095C20.6296 23.681 20.8934 24.2906 21.3224 24.7393C21.7715 25.1909 22.0492 25.8148 22.0492 26.5039C22.0492 27.8825 20.9377 29 19.5666 29ZM15.1661 26.3173C15.1661 27.7951 13.9746 28.993 12.5048 28.993C11.0351 28.993 9.84357 27.7951 9.84357 26.3173C9.84357 25.2377 10.4794 24.3075 11.3952 23.8845C11.4966 23.6122 11.552 23.3174 11.552 23.0095C11.552 22.5663 11.4371 22.15 11.2356 21.7893C10.8258 21.5652 10.481 21.2361 10.2371 20.8378C9.90596 20.6733 9.53313 20.5809 9.13883 20.5809C8.67467 20.5809 8.24026 20.709 7.86866 20.9319C7.3905 21.6442 6.58028 22.1126 5.66125 22.1126C4.19148 22.1126 3 20.9146 3 19.4368C3 17.959 4.19148 16.7611 5.66126 16.7611C6.67647 16.7611 7.55891 17.3326 8.00763 18.1732C8.34687 18.3481 8.73138 18.4468 9.13883 18.4468C9.48824 18.4468 9.82078 18.3742 10.1224 18.2432C10.5587 17.3645 11.4617 16.7611 12.5048 16.7611C13.9746 16.7611 15.1661 17.959 15.1661 19.4368C15.1661 20.289 14.7699 21.0482 14.1525 21.5382C13.8526 21.9507 13.6756 22.4593 13.6756 23.0095C13.6756 23.3748 13.7537 23.7218 13.8939 24.0345C14.657 24.505 15.1661 25.3513 15.1661 26.3173ZM12.5048 9.88059C13.9746 9.88059 15.1661 11.0786 15.1661 12.5563C15.1661 14.0341 13.9746 15.2321 12.5048 15.2321C11.4863 15.2321 10.6014 14.6568 10.154 13.8117C9.84412 13.6719 9.5005 13.5941 9.13883 13.5941C8.71643 13.5941 8.31868 13.7002 7.97047 13.8873C7.51131 14.6909 6.64915 15.2321 5.66126 15.2321C4.19148 15.2321 3 14.0341 3 12.5563C3 11.0786 4.19148 9.88059 5.66125 9.88059C6.61286 9.88059 7.44782 10.3828 7.91826 11.1379C8.27869 11.3429 8.69517 11.46 9.13883 11.46C9.51745 11.46 9.87628 11.3747 10.1974 11.2223C10.657 10.4204 11.5182 9.88059 12.5048 9.88059Z" fill="#0E4DF0"/>
</svg>
